<?xml version="1.0" encoding="UTF-8"?>
<svg width="23px" height="20px" viewBox="0 0 23 20" version="1.1" xmlns="http://www.w3.org/2000/svg" xmlns:xlink="http://www.w3.org/1999/xlink">
    <title>twitter</title>
    <defs>
        <filter id="filter-1">
            <feColorMatrix in="SourceGraphic" type="matrix" values="0 0 0 0 0.760784 0 0 0 0 0.760784 0 0 0 0 0.760784 0 0 0 1.000000 0"></feColorMatrix>
        </filter>
    </defs>
    <g id="Home" stroke="none" stroke-width="1" fill="none" fill-rule="evenodd">
        <g id="Desktop" transform="translate(-394.000000, -3640.000000)">
            <g id="Footer" transform="translate(0.000000, 3464.000000)">
                <g id="twitter" transform="translate(322.281908, 174.000000)" filter="url(#filter-1)">
                    <g transform="translate(71.718092, 2.000000)">
                        <path d="M20.0476745,5.40917239 L20.0476745,6.0036013 C20.0476745,8.19538826 19.5678299,10.3111752 18.6081406,12.3523192 C17.6484514,14.3920925 16.1662952,16.1197364 14.1616721,17.5352372 C12.1556604,18.9520951 9.83618225,19.659167 7.19909921,19.659167 C4.6500106,19.659167 2.3456565,18.9439523 0.281908032,17.5121657 C0.511518495,17.54338 0.868999987,17.5583086 1.35571917,17.5583086 C3.50470811,17.5583086 5.38008938,16.8729511 6.98461279,15.5035932 C6.01117442,15.5035932 5.13672979,15.1914501 4.36402871,14.567164 C3.59127263,13.9442351 3.02288362,13.1093204 2.73063212,12.1677477 C2.93136941,12.2288191 3.21872622,12.2586763 3.58995272,12.2586763 C4.02030047,12.2586763 4.42040014,12.2125334 4.79300155,12.1229619 C3.76181684,11.8786761 2.90249624,11.3154615 2.21503977,10.431961 C1.52758329,9.54981761 1.18385505,8.54417418 1.18385505,7.41774496 L1.18385505,7.32681634 C1.84381327,7.72174514 2.5161457,7.91988811 3.20360218,7.91988811 C1.85618749,7.00653044 1.18385505,5.68195826 1.18385505,3.94617155 C1.18385505,3.15495681 1.39971639,2.34745635 1.83006414,1.52502731 C4.20591372,4.69260055 7.29946786,6.36731579 11.1107266,6.54917304 C11.0250007,6.19020855 10.9811823,5.82274834 10.9801098,5.45395813 C10.9801098,4.14431452 11.4173321,3.0178853 12.2904019,2.07467048 C13.1662352,1.13009851 14.2331676,0.659166957 15.4939628,0.659166957 C16.8111294,0.659166957 17.9138096,1.16131282 18.8020034,2.1655991 C19.9184327,1.92267039 20.8781219,1.54131303 21.6796962,1.02559845 C21.3359679,2.15202767 20.6773846,3.03417103 19.7039462,3.67338568 C20.7076327,3.52138559 21.5655784,3.26217116 22.281908,2.89709952 C21.6926203,3.85759078 20.9362807,4.70797698 20.0476745,5.40917239 Z" id="Path" fill="#000000" fill-rule="nonzero"></path>
                    </g>
                </g>
            </g>
        </g>
    </g>
</svg>