<?xml version="1.0" encoding="UTF-8"?>
<svg width="23px" height="23px" viewBox="0 0 23 23" version="1.1" xmlns="http://www.w3.org/2000/svg" xmlns:xlink="http://www.w3.org/1999/xlink">
    <title>facebook</title>
    <defs>
        <filter id="filter-1">
            <feColorMatrix in="SourceGraphic" type="matrix" values="0 0 0 0 0.760784 0 0 0 0 0.760784 0 0 0 0 0.760784 0 0 0 1.000000 0"></feColorMatrix>
        </filter>
    </defs>
    <g id="Home" stroke="none" stroke-width="1" fill="none" fill-rule="evenodd">
        <g id="Desktop" transform="translate(-358.000000, -3638.000000)">
            <g id="Footer" transform="translate(0.000000, 3464.000000)">
                <g id="facebook" transform="translate(322.281908, 174.000000)" filter="url(#filter-1)">
                    <g transform="translate(35.718092, 0.000000)">
                        <path d="M19.1854036,0.659166957 L3.37840836,0.659166957 C2.55717468,0.659166957 1.7695598,0.98540237 1.18885521,1.56610641 C0.608145126,2.1468242 0.281908032,2.93442459 0.281908032,3.75567126 L0.281908032,19.5626654 C0.281908032,20.3839533 0.608145126,21.1715537 1.18885521,21.7522165 C1.7695598,22.3328793 2.55717468,22.659167 3.37840836,22.659167 L10.5724187,22.659167 L10.5724187,14.6291629 L7.85266479,14.6291629 L7.85266479,11.4969251 L10.5724187,11.4969251 L10.5724187,9.18967397 C10.5724187,7.88204832 10.9340442,6.86592281 11.6572953,6.14404745 C12.3805463,5.42079709 13.3609227,5.05779691 14.599772,5.05779691 C15.8400238,5.05779691 16.6430249,5.10592193 17.0101505,5.19667198 L17.0101505,7.98517337 L15.3573981,7.98517337 C14.7606472,7.98517337 14.3536466,8.11167343 14.1350213,8.36467356 C13.917771,8.61629869 13.8091459,8.99579888 13.8091459,9.50042413 L13.8091459,11.4969251 L16.9070253,11.4969251 L16.4945247,14.6291629 L13.8091459,14.6291629 L13.8091459,22.659167 L19.1854036,22.659167 C20.0066923,22.659167 20.7942934,22.3328793 21.3749567,21.7522165 C21.9557576,21.1715537 22.281908,20.3839533 22.281908,19.5626654 L22.281908,3.75567126 C22.281908,2.93442459 21.9557576,2.1468242 21.3749567,1.56610641 C20.7942934,0.98540237 20.0066923,0.659166957 19.1854036,0.659166957 Z" id="Path" fill="#000000" fill-rule="nonzero"></path>
                    </g>
                </g>
            </g>
        </g>
    </g>
</svg>