<?xml version="1.0" encoding="UTF-8"?>
<svg width="23px" height="23px" viewBox="0 0 23 23" version="1.1" xmlns="http://www.w3.org/2000/svg" xmlns:xlink="http://www.w3.org/1999/xlink">
    <title>instagram</title>
    <defs>
        <filter id="filter-1">
            <feColorMatrix in="SourceGraphic" type="matrix" values="0 0 0 0 0.760784 0 0 0 0 0.760784 0 0 0 0 0.760784 0 0 0 1.000000 0"></feColorMatrix>
        </filter>
    </defs>
    <g id="Home" stroke="none" stroke-width="1" fill="none" fill-rule="evenodd">
        <g id="Desktop" transform="translate(-322.000000, -3638.000000)">
            <g id="Footer" transform="translate(0.000000, 3464.000000)">
                <g id="instagram" transform="translate(322.281908, 174.000000)" filter="url(#filter-1)">
                    <g transform="translate(0.000000, 0.659167)">
                        <path d="M17.718092,4.84083304 C17.718092,5.03780928 17.6792151,5.23287408 17.6038911,5.41485032 C17.5285671,5.59684276 17.41793,5.76219913 17.2787831,5.90149179 C17.1394743,6.04078445 16.9740855,6.15125961 16.7920121,6.22664838 C16.6101006,6.30203715 16.4150682,6.34083304 16.218092,6.34083304 C16.0211157,6.34083304 15.8260833,6.30203715 15.6440099,6.22664838 C15.4620984,6.15125961 15.2967097,6.04078445 15.1574008,5.90149179 C15.018092,5.76219913 14.9076168,5.59684276 14.8322928,5.41485032 C14.7568069,5.23287408 14.718092,5.03780928 14.718092,4.84083304 C14.718092,4.44300907 14.8760293,4.06148099 15.1574008,3.7801743 C15.4387723,3.4988676 15.8202518,3.34083304 16.218092,3.34083304 C16.6159321,3.34083304 16.9974116,3.4988676 17.2787831,3.7801743 C17.5599926,4.06148099 17.718092,4.44300907 17.718092,4.84083304 Z M21.718092,11.340833 L21.718092,11.3573275 L21.6452171,15.9718378 C21.6266546,17.6359991 20.9573056,19.2268729 19.7805824,20.4037345 C18.6039966,21.5807336 17.0132615,22.2503581 15.3491015,22.2693331 L10.718081,22.340833 L10.701581,22.340833 L6.08708791,22.2679581 C4.42288666,22.2493956 2.83206905,21.5800461 1.65511206,20.4034595 C0.478141328,19.2267354 -0.191467542,17.6359991 -0.210408139,15.9718378 L-0.281908032,11.340833 L-0.281908032,11.3243276 L-0.209033141,6.70983102 C-0.190456919,5.04562851 0.478801327,3.45480971 1.65551081,2.27785184 C2.8322203,1.10088022 4.42288666,0.431269475 6.08708791,0.412335739 L10.718081,0.340833043 L10.7345809,0.340833043 L15.3491015,0.413710738 C17.0132615,0.432286974 18.6041341,1.10154022 19.7809949,2.27825059 C20.9579931,3.45496096 21.6276171,5.04562851 21.6465921,6.70983102 L21.718092,11.340833 Z M19.718092,11.340833 L19.6462027,6.71640572 C19.6332073,5.57900567 19.1756043,4.49184522 18.371412,3.68752786 C17.5670814,2.88322433 16.4798942,2.42564865 15.3425227,2.41272239 L10.7180781,2.34083304 L6.09366128,2.41272239 C4.95626211,2.42564865 3.86910249,2.88322433 3.06478575,3.68752786 C2.26048284,4.49184522 1.80290751,5.57900567 1.78998126,6.71640572 L1.71809197,11.340833 L1.78998126,15.9652604 C1.80290751,17.1026328 2.26048284,18.1898209 3.06478575,18.994152 C3.86910249,19.7984832 4.95626211,20.2559483 6.09366128,20.2689437 L10.7180781,20.340833 L15.3425227,20.2689437 C16.4798942,20.2559483 17.5670814,19.7984832 18.371412,18.994152 C19.1756043,18.1898209 19.6332073,17.1026328 19.6462027,15.9652604 L19.718092,11.340833 Z M16.718092,10.840833 C16.718092,12.2995162 16.1386387,13.6984799 15.1071903,14.7299295 C14.075742,15.761379 12.6767666,16.340833 11.2180786,16.340833 C9.75939055,16.340833 8.36044191,15.761379 7.3289936,14.7299295 C6.29754528,13.6984799 5.71809197,12.2995162 5.71809197,10.840833 C5.71809197,9.38213655 6.29754528,7.9831862 7.3289936,6.95173663 C8.36044191,5.92028706 9.75939055,5.34083304 11.2180786,5.34083304 C12.6767666,5.34083304 14.075742,5.92028706 15.1071903,6.95173663 C16.1386387,7.9831862 16.718092,9.38213655 16.718092,10.840833 Z M14.718092,10.840833 C14.718092,9.9125661 14.3493768,9.02232716 13.6929622,8.36595141 C13.036561,7.70957565 12.1463237,7.34083304 11.2180786,7.34083304 C10.2898201,7.34083304 9.39958287,7.70957565 8.74320837,8.36595141 C8.08683388,9.02232716 7.71809197,9.9125661 7.71809197,10.840833 C7.71809197,11.7690732 8.08683388,12.6592855 8.74320837,13.3157013 C9.39958287,13.9721172 10.2898201,14.340833 11.2180786,14.340833 C12.1463237,14.340833 13.036561,13.9721172 13.6929622,13.3157013 C14.3493768,12.6592855 14.718092,11.7690732 14.718092,10.840833 Z" id="Shape" fill="#000000" fill-rule="nonzero"></path>
                    </g>
                </g>
            </g>
        </g>
    </g>
</svg>